<?xml version="1.0" encoding="UTF-8" standalone="no"?>
<svg
   version="1.0"
   width="29.999996pt"
   height="30.000006pt"
   viewBox="0 0 29.999996 30.000006"
   preserveAspectRatio="xMidYMid meet"
   id="svg20"
   sodipodi:docname="radio-_1_.svg"
   inkscape:version="1.1.2 (b8e25be833, 2022-02-05)"
   xmlns:inkscape="http://www.inkscape.org/namespaces/inkscape"
   xmlns:sodipodi="http://sodipodi.sourceforge.net/DTD/sodipodi-0.dtd"
   xmlns="http://www.w3.org/2000/svg"
   xmlns:svg="http://www.w3.org/2000/svg">
  <defs
     id="defs24" />
  <sodipodi:namedview
     id="namedview22"
     pagecolor="#ffffff"
     bordercolor="#666666"
     borderopacity="1.0"
     inkscape:pageshadow="2"
     inkscape:pageopacity="0.0"
     inkscape:pagecheckerboard="0"
     inkscape:document-units="pt"
     showgrid="false"
     inkscape:zoom="0.76025391"
     inkscape:cx="347.91008"
     inkscape:cy="277.53886"
     inkscape:window-width="1366"
     inkscape:window-height="705"
     inkscape:window-x="-8"
     inkscape:window-y="-8"
     inkscape:window-maximized="1"
     inkscape:current-layer="svg20" />
  <g
     transform="matrix(0.00625642,0,0,-0.00708069,-0.15604091,32.796879)"
     fill="#000000"
     stroke="none"
     id="g18">
    <path
       d="m 4014,4611 c -29,-17 -69,-60 -76,-81 -2,-5 -66,-18 -143,-29 -77,-11 -649,-95 -1272,-185 l -1131,-166 -58,27 c -67,31 -205,43 -278,24 -68,-17 -148,-57 -197,-99 -56,-48 -116,-143 -136,-214 l -16,-57 -46,-6 C 570,3812 493,3789 410,3748 341,3714 308,3690 235,3616 162,3543 136,3509 102,3440 20,3273 25,3355 25,2105 V 995 L 48,916 C 116,676 310,481 550,413 612,396 699,395 2430,395 h 1815 l 77,26 c 120,41 204,94 294,184 67,67 90,98 128,176 79,164 76,98 76,1329 0,1210 2,1168 -64,1307 -93,195 -246,324 -465,390 -51,16 -168,18 -1370,23 l -1315,5 -11,45 c -7,25 -22,65 -34,88 -12,24 -21,46 -19,48 2,2 545,82 1206,179 l 1201,175 43,-30 c 57,-40 106,-47 163,-25 64,24 98,72 103,143 3,47 0,63 -20,92 -53,77 -152,105 -224,61 z M 1286,4032 c 23,-12 56,-33 73,-48 32,-27 91,-118 91,-141 0,-10 -65,-13 -290,-13 -329,0 -316,-4 -262,81 37,57 103,114 156,133 58,22 179,16 232,-12 z m 2893,-362 c 215,-28 388,-168 465,-378 21,-56 21,-68 24,-1155 3,-1220 5,-1165 -65,-1299 -49,-94 -143,-186 -239,-233 -139,-69 -46,-66 -1985,-63 -1664,3 -1747,4 -1799,21 -194,65 -336,212 -385,397 -22,81 -22,2218 0,2299 57,216 244,382 460,411 89,11 3435,11 3524,0 z"
       id="path2" />
    <path
       d="m 702,3361 c -61,-21 -104,-58 -135,-116 -21,-38 -22,-52 -22,-325 0,-275 1,-286 22,-327 27,-50 86,-100 133,-113 54,-15 3401,-13 3452,2 46,14 107,69 131,120 15,31 17,72 17,320 0,320 -4,336 -76,396 -79,66 30,62 -1803,62 -1589,-1 -1668,-2 -1719,-19 z m 508,-304 c 0,-150 2,-165 20,-185 14,-14 33,-22 55,-22 22,0 41,8 55,22 18,20 20,35 20,185 v 163 h 1372 1372 l 23,-22 c 23,-21 23,-23 23,-279 v -258 l -26,-20 -27,-21 H 2421 c -1359,1 -1679,3 -1693,14 -33,24 -38,65 -38,292 0,230 6,273 42,287 7,3 118,6 246,6 l 232,1 z"
       id="path4" />
    <path
       d="m 3645,2104 c -11,-2 -40,-10 -65,-16 -184,-45 -354,-217 -405,-408 -19,-71 -19,-220 0,-293 47,-180 191,-336 368,-397 87,-30 232,-38 317,-16 207,52 364,202 424,405 21,71 21,224 0,305 -48,187 -198,340 -394,402 -46,15 -209,27 -245,18 z m 222,-171 c 72,-25 165,-95 207,-157 117,-169 99,-394 -43,-537 -210,-209 -554,-151 -681,116 -44,92 -53,219 -22,307 54,153 182,263 342,292 44,8 143,-3 197,-21 z"
       id="path6" />
    <path
       d="m 3612,1790 c -49,-22 -113,-86 -139,-139 -28,-57 -25,-183 7,-244 103,-202 398,-202 500,0 69,136 13,308 -122,376 -68,35 -178,38 -246,7 z m 201,-163 c 89,-83 36,-217 -85,-217 -43,0 -54,4 -83,33 -85,85 -29,217 92,217 33,0 48,-6 76,-33 z"
       id="path8" />
    <path
       d="m 566,2019 -26,-20 v -475 c 0,-526 0,-526 61,-539 23,-5 38,-2 58,13 l 26,19 3,490 c 2,481 2,489 -18,511 -26,28 -69,28 -104,1 z"
       id="path10" />
    <path
       d="m 1039,2021 -24,-19 v -492 -491 l 25,-19 c 32,-25 61,-25 94,1 l 26,20 v 490 c 0,476 -1,490 -20,509 -25,25 -71,26 -101,1 z"
       id="path12" />
    <path
       d="m 1509,2021 -24,-19 -3,-473 c -2,-331 1,-482 9,-500 12,-31 58,-54 88,-44 53,16 51,-1 51,526 0,476 -1,490 -20,509 -25,25 -71,26 -101,1 z"
       id="path14" />
    <path
       d="m 1992,2033 c -7,-3 -19,-18 -27,-33 -13,-24 -15,-103 -15,-495 v -467 l 29,-29 c 36,-35 61,-37 98,-5 l 28,24 3,454 c 2,249 0,468 -3,486 -11,57 -61,86 -113,65 z"
       id="path16" />
  </g>
</svg>
