<?xml version="1.0" encoding="UTF-8" standalone="no"?>
<!-- Generator: Adobe Illustrator 23.0.1, SVG Export Plug-In . SVG Version: 6.00 Build 0)  -->

<svg
   xmlns:dc="http://purl.org/dc/elements/1.1/"
   xmlns:cc="http://creativecommons.org/ns#"
   xmlns:rdf="http://www.w3.org/1999/02/22-rdf-syntax-ns#"
   xmlns:svg="http://www.w3.org/2000/svg"
   xmlns="http://www.w3.org/2000/svg"
   xmlns:sodipodi="http://sodipodi.sourceforge.net/DTD/sodipodi-0.dtd"
   xmlns:inkscape="http://www.inkscape.org/namespaces/inkscape"
   version="1.1"
   id="Layer_1"
   x="0px"
   y="0px"
   viewBox="0 0 36.2 36.200001"
   xml:space="preserve"
   sodipodi:docname="carteirinha.svg"
   width="36.200001"
   height="36.200001"
   inkscape:version="0.92.4 (unknown)"><metadata
   id="metadata3945"><rdf:RDF><cc:Work
       rdf:about=""><dc:format>image/svg+xml</dc:format><dc:type
         rdf:resource="http://purl.org/dc/dcmitype/StillImage" /><dc:title></dc:title></cc:Work></rdf:RDF></metadata><defs
   id="defs3943" /><sodipodi:namedview
   pagecolor="#ffffff"
   bordercolor="#666666"
   borderopacity="1"
   objecttolerance="10"
   gridtolerance="10"
   guidetolerance="10"
   inkscape:pageopacity="0"
   inkscape:pageshadow="2"
   inkscape:window-width="1366"
   inkscape:window-height="707"
   id="namedview3941"
   showgrid="false"
   inkscape:zoom="9.6326531"
   inkscape:cx="18.1"
   inkscape:cy="12.25"
   inkscape:window-x="0"
   inkscape:window-y="24"
   inkscape:window-maximized="1"
   inkscape:current-layer="Layer_1" />
<g
   id="noun_identification_1054414"
   transform="translate(-16.1,-21.917373)">
	<path
   id="Caminho_44"
   d="M 47.3,44.1 H 35.5 c -0.3,0 -0.6,0.3 -0.6,0.6 0,0.3 0.3,0.6 0.6,0.6 h 11.9 c 0.3,0 0.6,-0.2 0.6,-0.6 0,0 0,0 0,-0.1 0,-0.2 -0.3,-0.5 -0.7,-0.5 0,0 0,0 0,0 z"
   inkscape:connector-curvature="0" />
	<path
   id="Caminho_45"
   d="m 20.3,47.7 h 11.9 c 0.3,0 0.6,-0.2 0.6,-0.6 0,0 0,0 0,-0.1 V 33.4 c 0,-0.3 -0.2,-0.6 -0.6,-0.6 0,0 0,0 -0.1,0 H 20.3 c -0.3,0 -0.6,0.2 -0.6,0.6 0,0 0,0 0,0.1 v 13.8 c 0,0.2 0.3,0.4 0.6,0.4 0,0 0,0 0,0 z M 21,34 h 10.6 v 12.5 h -0.8 c 0,-1.9 -1.3,-3.6 -3.2,-4.2 1.4,-0.7 2,-2.5 1.3,-4 -0.7,-1.4 -2.5,-2 -4,-1.3 -1,0.5 -1.6,1.5 -1.6,2.6 0,1.1 0.6,2.1 1.6,2.6 -1.9,0.6 -3.1,2.3 -3.2,4.2 H 21 Z"
   inkscape:connector-curvature="0" />
	<path
   id="Caminho_46"
   d="M 51.7,27.7 H 16.6 c -0.3,0 -0.5,0.2 -0.5,0.5 0,0 0,0 0,0.1 v 23.5 c 0,0.3 0.2,0.5 0.5,0.5 0,0 0,0 0.1,0 h 35.1 c 0.3,0 0.5,-0.2 0.5,-0.5 0,0 0,0 0,-0.1 V 28.2 C 52.2,27.9 52,27.7 51.7,27.7 Z m -34.6,1 H 51.2 V 51.2 H 17.1 Z m 34.1,22.5 z"
   inkscape:connector-curvature="0" />
	<path
   id="Caminho_47"
   d="M 47.3,40.9 H 35.5 c -0.3,0 -0.6,0.3 -0.6,0.6 0,0.3 0.3,0.6 0.6,0.6 h 11.9 c 0.3,0 0.6,-0.2 0.6,-0.6 0,0 0,0 0,-0.1 0,-0.2 -0.3,-0.5 -0.7,-0.5 0,0 0,0 0,0 z"
   inkscape:connector-curvature="0" />
	<path
   id="Caminho_48"
   d="M 47.3,37.8 H 35.5 c -0.3,0 -0.6,0.3 -0.6,0.6 0,0.3 0.3,0.6 0.6,0.6 h 11.9 c 0.3,0 0.6,-0.2 0.6,-0.6 0,0 0,0 0,-0.1 0,-0.2 -0.3,-0.5 -0.7,-0.5 0,0 0,0 0,0 z"
   inkscape:connector-curvature="0" />
	<path
   id="Caminho_49"
   d="M 47.3,34.6 H 35.5 c -0.3,0 -0.6,0.3 -0.6,0.6 0,0.3 0.3,0.6 0.6,0.6 h 11.9 c 0.3,0 0.6,-0.2 0.6,-0.6 0,0 0,0 0,-0.1 0,-0.2 -0.3,-0.5 -0.7,-0.5 0,0 0,0 0,0 z"
   inkscape:connector-curvature="0" />
</g>
</svg>