<?xml version="1.0" encoding="UTF-8" standalone="no"?>
<!-- Created with Inkscape (http://www.inkscape.org/) -->

<svg
   width="200.00023mm"
   height="178.61781mm"
   viewBox="0 0 200.00023 178.61781"
   version="1.1"
   id="svg5"
   inkscape:version="1.3.2 (091e20e, 2023-11-25, custom)"
   sodipodi:docname="BandejAppJustLogo.svg"
   xmlns:inkscape="http://www.inkscape.org/namespaces/inkscape"
   xmlns:sodipodi="http://sodipodi.sourceforge.net/DTD/sodipodi-0.dtd"
   xmlns="http://www.w3.org/2000/svg"
   xmlns:svg="http://www.w3.org/2000/svg">
  <sodipodi:namedview
     id="namedview7"
     pagecolor="#ffffff"
     bordercolor="#000000"
     borderopacity="0.25"
     inkscape:showpageshadow="2"
     inkscape:pageopacity="0.0"
     inkscape:pagecheckerboard="0"
     inkscape:deskcolor="#d1d1d1"
     inkscape:document-units="mm"
     showgrid="false"
     inkscape:zoom="0.53133182"
     inkscape:cx="348.18167"
     inkscape:cy="505.33394"
     inkscape:window-width="1366"
     inkscape:window-height="745"
     inkscape:window-x="290"
     inkscape:window-y="1072"
     inkscape:window-maximized="1"
     inkscape:current-layer="layer1" />
  <defs
     id="defs2" />
  <g
     inkscape:label="Camada 1"
     inkscape:groupmode="layer"
     id="layer1"
     transform="translate(-41.249324,-116.60342)">
    <g
       aria-label="ðŸ½ï¸"
       id="text398"
       style="font-size:203.68px;line-height:0.8;-inkscape-font-specification:'sans-serif, Normal';text-align:center;text-anchor:middle;fill:#005baa;stroke-width:113.722;stroke-dasharray:9.11968, 9.11968;paint-order:stroke fill markers">
      <path
         d="m 75.660104,235.05209 q 4.375937,10.44258 11.437109,18.99554 7.160624,8.45352 16.210857,14.42071 9.05024,5.96718 19.59227,9.24914 10.64148,3.28195 21.97914,3.28195 9.24914,0 17.90156,-2.18797 8.75187,-2.18797 16.50922,-6.16609 7.85679,-4.07758 14.4207,-9.74641 6.66336,-5.66883 11.83492,-12.73 5.17156,-7.16062 8.65242,-15.41523 3.48086,-8.25461 4.8732,-17.4043 v 38.38891 q -6.26554,9.24914 -14.4207,16.60867 -8.15515,7.35953 -17.70265,12.43164 -9.5475,5.07211 -20.28844,7.75734 -10.64148,2.68524 -21.78023,2.68524 -10.14422,0 -19.79117,-2.18797 -9.64696,-2.18797 -18.59774,-6.365 -8.851326,-4.17703 -16.708123,-10.34313 -7.757344,-6.06664 -14.122343,-13.92343 z M 205.84424,162.15295 q -5.27102,-7.35953 -12.13328,-13.12781 -6.76281,-5.86774 -14.61961,-9.84586 -7.75734,-4.07758 -16.50922,-6.16609 -8.65242,-2.18797 -17.70265,-2.18797 -8.25461,0 -16.21086,1.79015 -7.8568,1.69071 -15.21633,5.07211 -7.26008,3.38141 -13.724531,8.25461 -6.464453,4.8732 -11.834921,11.13875 v -19.99008 q 12.033827,-10.04476 26.653432,-15.21632 14.61961,-5.27102 30.33321,-5.27102 17.6032,0 33.61515,6.46445 16.01195,6.46446 28.6425,18.79664 -0.79562,2.28743 -1.09398,4.87321 -0.29836,2.58578 -0.39782,5.17156 0,2.58578 0.0995,5.27101 0.0995,2.58579 0.0995,4.97266 z m -3.77922,43.75937 q 0,11.83493 -4.57484,22.2775 -4.47539,10.34313 -12.23274,18.10047 -7.75734,7.75734 -18.19992,12.33219 -10.34312,4.47539 -22.17804,4.47539 -11.83493,0 -22.2775,-4.47539 -10.44258,-4.47539 -18.19992,-12.23274 -7.757348,-7.75734 -12.232738,-18.19992 -4.475391,-10.44257 -4.475391,-22.2775 0,-11.83492 4.475391,-22.27749 4.47539,-10.44258 12.232738,-18.19993 7.75734,-7.75734 18.19992,-12.23273 10.44257,-4.47539 22.2775,-4.47539 11.83492,0 22.17804,4.57484 10.44258,4.47539 18.19992,12.23274 7.75735,7.75734 12.23274,18.19992 4.57484,10.34312 4.57484,22.17804 z m -57.18554,50.02492 q 10.34312,0 19.39335,-3.87867 9.14969,-3.97812 15.9125,-10.74093 6.86227,-6.76282 10.74094,-15.9125 3.97813,-9.14969 3.97813,-19.49282 0,-10.34312 -3.97813,-19.39335 -3.87867,-9.14969 -10.74094,-15.9125 -6.76281,-6.86227 -15.9125,-10.74094 -9.05023,-3.97813 -19.39335,-3.97813 -10.34313,0 -19.49282,3.97813 -9.14968,3.87867 -15.9125,10.74094 -6.76281,6.76281 -10.740932,15.9125 -3.878672,9.05023 -3.878672,19.39335 0,10.34313 3.878672,19.49282 3.978122,9.14968 10.740932,15.9125 6.76282,6.76281 15.9125,10.74093 9.14969,3.87867 19.49282,3.87867 z m 96.37007,15.7136 q 0,2.78468 -1.98906,4.77375 -1.88961,1.98906 -4.6743,1.98906 -3.28195,0 -5.86773,-1.4918 -2.48633,-1.39234 -2.48633,-5.27101 v -61.56148 q -6.06664,-2.78469 -9.64695,-8.35407 -3.58032,-5.56937 -3.58032,-12.23273 v -39.6818 q 0,-3.48086 1.29289,-6.46445 1.2929,-3.08305 3.48086,-5.37047 2.28743,-2.28742 5.27102,-3.58031 3.08305,-1.29289 6.56391,-1.29289 2.38687,0 4.47539,0.89508 2.18796,0.89508 3.77921,2.48633 1.59125,1.59125 2.48633,3.77921 0.89508,2.08852 0.89508,4.47539 z M 75.660104,133.11264 q 1.889609,0 3.480859,1.39234 1.59125,1.39235 1.59125,3.38141 v 32.81953 q 0,4.8732 -2.088516,8.85133 -2.088515,3.97812 -5.867734,6.86226 -1.29289,0.99453 -2.187969,2.68524 -0.795624,1.59125 -1.29289,3.48086 -0.397813,1.88961 -0.596719,3.87867 -0.198906,1.88961 -0.198906,3.48086 v 71.7057 q 0,2.78468 -1.989062,4.67429 -1.88961,1.98907 -4.674297,1.98907 -1.59125,0 -3.083047,-0.39782 -1.491797,-0.29836 -2.685234,-1.09398 -1.193438,-0.69617 -1.88961,-1.98906 -0.696171,-1.29289 -0.696171,-3.1825 v -71.7057 q 0,-1.59125 -0.198907,-3.48086 -0.09945,-1.98906 -0.596718,-3.87867 -0.497266,-1.88961 -1.392344,-3.48086 -0.795625,-1.69071 -2.187969,-2.68524 -3.779218,-2.68523 -5.867734,-6.86226 -1.989062,-4.27649 -1.989062,-8.85133 v -32.81953 q 0,-2.18797 1.491796,-3.48086 1.59125,-1.29289 3.580313,-1.29289 1.989062,0 3.281953,1.59125 1.392344,1.4918 1.392344,3.48086 v 18.99554 q 0,0.99454 0.696171,1.79016 0.795625,0.69617 1.790157,0.69617 1.093984,0 1.790156,-0.69617 0.696172,-0.69617 0.696172,-1.79016 v -19.2939 q 0,-2.18797 1.491796,-3.48086 1.59125,-1.29289 3.679766,-1.29289 1.989062,0 3.281953,1.59125 1.392344,1.4918 1.392344,3.48086 v 18.99554 q 0,0.99454 0.696172,1.79016 0.795624,0.69617 1.790156,0.69617 1.093984,0 1.790156,-0.69617 0.696172,-0.69617 0.696172,-1.79016 v -19.2939 q 0,-1.98906 1.392343,-3.38141 1.491797,-1.39234 3.48086,-1.39234 z"
         id="path1071" />
    </g>
  </g>
</svg>
