<?xml version="1.0" encoding="utf-8"?>
<!-- Generator: Adobe Illustrator 23.0.1, SVG Export Plug-In . SVG Version: 6.00 Build 0)  -->
<svg version="1.1" id="noun_Research_1762333" xmlns="http://www.w3.org/2000/svg" xmlns:xlink="http://www.w3.org/1999/xlink"
	 x="0px" y="0px" viewBox="0 0 36.2 36.2" style="enable-background:new 0 0 36.2 36.2;" xml:space="preserve">
<g id="_02-book">
	<path id="Caminho_1013" d="M33.9,1.5H33C32.7,0.6,31.8,0,30.9,0H20.3c-0.2,0-0.4,0.1-0.5,0.2l-1.7,1.7l-1.7-1.7
		C16.2,0.1,16,0,15.8,0H5.3c-1,0-1.8,0.6-2.1,1.5H2.3C1,1.5,0,2.5,0,3.8c0,0,0,0,0,0v19.6c0,1.2,1,2.3,2.3,2.3l0,0h5.3v-1.5H2.3
		c-0.4,0-0.8-0.3-0.8-0.8l0,0V3.8C1.5,3.4,1.8,3,2.3,3H3v17.3c0,1.2,1,2.3,2.3,2.3l0,0h1.5v-1.5H5.3c-0.4,0-0.8-0.3-0.8-0.8l0,0V2.3
		c0-0.4,0.3-0.8,0.8-0.8l0,0h10.2l1.8,1.8V6h1.5V3.3l1.8-1.8h10.2c0.4,0,0.8,0.3,0.8,0.8v0v18.1c0,0.4-0.3,0.8-0.8,0.8l0,0h-1.5v1.5
		h1.5c1.2,0,2.3-1,2.3-2.3l0,0V3h0.8c0.4,0,0.8,0.3,0.8,0.8v19.6c0,0.4-0.3,0.8-0.8,0.8h-5.3v1.5h5.3c1.2,0,2.3-1,2.3-2.3V3.8
		C36.2,2.5,35.1,1.5,33.9,1.5z"/>
	<rect id="Ret창ngulo_26" x="6" y="5.3" width="9.8" height="1.5"/>
	<rect id="Ret창ngulo_27" x="20.3" y="5.3" width="9.8" height="1.5"/>
	<rect id="Ret창ngulo_28" x="6" y="9" width="3" height="1.5"/>
	<rect id="Ret창ngulo_29" x="27.1" y="9" width="3" height="1.5"/>
	<path id="Caminho_1014" d="M18.1,11.3v1.5c2.9,0,5.3,2.4,5.3,5.3h1.5C24.9,14.3,21.8,11.3,18.1,11.3z"/>
	<path id="Caminho_1015" d="M29.4,26.6c-0.3-0.3-0.8-0.3-1.1,0c0,0,0,0,0,0L28,26.9l-2-2c3.8-4.4,3.4-11.1-1.1-14.9
		S13.9,6.7,10,11.1S6.7,22.2,11.1,26c4,3.4,9.9,3.4,13.9,0l2,2l-0.4,0.4c-0.3,0.3-0.3,0.8,0,1.1c0,0,0,0,0,0l6.1,6.1
		c0.8,0.8,2.1,0.8,2.9,0s0.8-2.1,0-2.9L29.4,26.6z M9,18.1c0-5,4-9,9-9s9,4,9,9s-4,9-9,9l0,0C13.1,27.1,9,23.1,9,18.1z M34.5,34.5
		c-0.2,0.2-0.5,0.2-0.7,0l-5.6-5.6l0.7-0.7l5.6,5.6C34.7,34,34.7,34.3,34.5,34.5L34.5,34.5z"/>
</g>
</svg>
