<svg xmlns="http://www.w3.org/2000/svg" viewBox="0 0 64 64" id="qr-code">
  <g>
    <path d="M42 1H22a8.009 8.009 0 0 0-8 8v46a8.009 8.009 0 0 0 8 8h20a8.009 8.009 0 0 0 8-8V9a8.009 8.009 0 0 0-8-8ZM16 11h32v38H16Zm6-8h20a6.006 6.006 0 0 1 6 6H16a6.006 6.006 0 0 1 6-6Zm20 58H22a6.006 6.006 0 0 1-6-6v-4h32v4a6.006 6.006 0 0 1-6 6Z"></path>
    <path d="M32 53a3 3 0 1 0 3 3 3 3 0 0 0-3-3zm0 4a1 1 0 1 1 1-1 1 1 0 0 1-1 1zm3-52h-6a1 1 0 0 0 0 2h6a1 1 0 0 0 0-2zM20 25a1 1 0 0 0 1-1v-5h5a1 1 0 0 0 0-2h-6a1 1 0 0 0-1 1v6a1 1 0 0 0 1 1zm24-8h-6a1 1 0 0 0 0 2h5v5a1 1 0 0 0 2 0v-6a1 1 0 0 0-1-1zM26 41h-5v-5a1 1 0 0 0-2 0v6a1 1 0 0 0 1 1h6a1 1 0 0 0 0-2zm18-6a1 1 0 0 0-1 1v5h-5a1 1 0 0 0 0 2h6a1 1 0 0 0 1-1v-6a1 1 0 0 0-1-1z"></path>
    <path d="M23 22v6a1 1 0 0 0 1 1h6a1 1 0 0 0 1-1v-6a1 1 0 0 0-1-1h-6a1 1 0 0 0-1 1zm2 1h4v4h-4zm3 10h-4a1 1 0 0 0-1 1v4a1 1 0 0 0 1 1h4a1 1 0 0 0 1-1v-4a1 1 0 0 0-1-1zm-1 4h-2v-2h2zm14 1v-9a1 1 0 0 0-1-1h-4a1 1 0 0 0-1 1v4h-4a1 1 0 0 0-1 1v4a1 1 0 0 0 1 1h9a1 1 0 0 0 1-1zm-2-1h-7v-2h4a1 1 0 0 0 1-1v-4h2zm-3-10h4a1 1 0 0 0 1-1v-4a1 1 0 0 0-1-1h-4a1 1 0 0 0-1 1v4a1 1 0 0 0 1 1zm1-4h2v2h-2z"></path>
    <path d="M23 31a1 1 0 0 0 1 1h9a1 1 0 0 0 1-1v-9a1 1 0 0 0-2 0v8h-8a1 1 0 0 0-1 1Z"></path>
  </g>
</svg>
